<svg width="698" height="616" viewBox="0 0 698 616" fill="none" xmlns="http://www.w3.org/2000/svg">
<path d="M678.391 339.218C678.391 339.435 529.428 339.621 345.706 339.621C161.984 339.621 12.9902 339.435 12.9902 339.218C12.9902 339.002 161.937 338.754 345.706 338.754C529.474 338.754 678.391 338.986 678.391 339.218Z" fill="#E0E0E0"/>
<path d="M215.06 283.015C207.969 281.033 201.356 277.629 195.622 273.01C189.888 268.392 185.153 262.655 181.706 256.149C178.259 249.643 176.172 242.504 175.571 235.166C174.97 227.828 175.868 220.445 178.21 213.465C181.849 202.627 188.878 193.043 191.882 181.988C195.303 169.446 193.26 156.146 191.154 143.28C189.048 130.414 186.896 117.191 190.101 104.572C193.306 91.9536 203.386 80.14 216.422 79.242C228.437 78.4214 239.554 87.3242 244.571 98.2862C249.587 109.248 249.634 121.82 248.457 133.897C247.28 145.974 245.004 157.881 245.716 169.926C247.172 194.281 260.812 217.227 259.218 241.582C258.382 254.263 253.473 262.376 245.066 271.913C237.82 280.135 225.79 285.554 215.122 283.03" fill="#F0F0F0"/>
<path d="M217.367 343.6C217.181 343.6 217.026 299.628 217.026 245.406C217.026 191.185 217.181 147.182 217.367 147.182C217.553 147.182 217.692 191.154 217.692 245.406C217.692 299.659 217.537 343.6 217.367 343.6Z" fill="#E0E0E0"/>
<path d="M239.182 225.061C239.29 225.201 234.537 229.118 228.545 233.778C222.553 238.439 217.614 242.139 217.506 241.984C217.397 241.83 222.151 237.943 228.143 233.267C234.135 228.592 239.074 224.922 239.182 225.061Z" fill="#E0E0E0"/>
<path d="M217.382 222.228C215.027 221.005 212.779 219.586 210.663 217.986C208.433 216.56 206.316 214.966 204.33 213.217C206.687 214.43 208.935 215.845 211.05 217.444C213.29 218.86 215.408 220.46 217.382 222.228Z" fill="#E0E0E0"/>
<path d="M83.0668 152.493L56.5443 205.987L64.4561 206.281L41.9902 248.797H53.7883L35.3789 286.576H138.295L115.643 248.797L126.497 248.333L104.774 205.832L112.81 205.367L83.0668 152.493Z" fill="#F0F0F0"/>
<path d="M84.0733 214.363C84.2901 214.363 84.0733 242.139 83.7327 276.388C83.392 310.637 82.8037 338.413 82.5869 338.413C82.3702 338.413 82.5869 310.637 82.9275 276.372C83.2682 242.108 83.841 214.347 84.0733 214.363Z" fill="#E0E0E0"/>
<path d="M99.3707 230.372C97.0399 232.823 94.5186 235.085 91.8305 237.138C89.3148 239.412 86.6226 241.483 83.7793 243.331C86.1126 240.883 88.6337 238.621 91.3196 236.565C93.8372 234.293 96.5292 232.223 99.3707 230.372Z" fill="#E0E0E0"/>
<path d="M55.3057 49.2204H130.786C130.786 49.2204 130.786 31.9413 121.867 31.9413C118.674 31.8383 115.545 32.8519 113.018 34.8075C110.492 36.7632 108.726 39.5385 108.026 42.6556C108.026 42.6556 108.026 10.5128 91.7993 15.1577C76.4555 19.6478 74.7679 40.2867 74.7679 40.2867C74.7679 40.2867 71.9964 29.8976 63.682 35.7502C55.3676 41.6028 55.3057 49.2204 55.3057 49.2204Z" fill="#F0F0F0"/>
<path d="M697.466 591.933C697.466 592.15 541.319 592.336 348.756 592.336C156.193 592.336 0 592.15 0 591.933C0 591.717 156.116 591.531 348.756 591.531C541.396 591.531 697.466 591.701 697.466 591.933Z" fill="#263238"/>
<path d="M297.213 129.423V413.692H616.923V129.423H582.334L512.319 41.6807L453.267 128.572L297.213 129.423Z" fill="#696871"/>
<g opacity="0.5">
<path opacity="0.5" d="M297.213 129.423V413.692H616.923V129.423H582.334L512.319 41.6807L453.267 128.572L297.213 129.423Z" fill="white"/>
</g>
<path d="M360.415 24.9277C358.867 27.0334 268.585 133.541 268.585 133.541H451.192L512.319 41.6803L582.334 129.423L646.372 129.345L568.198 22.311L360.415 24.9277Z" fill="#263238"/>
<path d="M421.078 401.91H345.319V413.708H421.078V401.91Z" fill="#E6E6E6"/>
<path d="M428.959 419.56H327.87V428.711H428.959V419.56Z" fill="#E6E6E6"/>
<path d="M350.352 287.613L350.971 401.274H416.046V287.613H350.352Z" fill="#696871"/>
<g opacity="0.2">
<path opacity="0.2" d="M350.352 287.613L350.971 401.274H416.046V287.613H350.352Z" fill="black"/>
</g>
<g opacity="0.4">
<path opacity="0.4" d="M401.461 347.316C403.043 347.316 404.325 346.034 404.325 344.452C404.325 342.87 403.043 341.587 401.461 341.587C399.879 341.587 398.597 342.87 398.597 344.452C398.597 346.034 399.879 347.316 401.461 347.316Z" fill="black"/>
</g>
<path d="M383.423 248.581L323.41 298.049V311.736L383.949 262.562L439.394 308.005V293.714L383.423 248.581Z" fill="#263238"/>
<path d="M415.952 10.2344H401.925V29.6656H415.952V10.2344Z" fill="#696871"/>
<path d="M440.215 0H425.429V29.6656H440.215V0Z" fill="#696871"/>
<g opacity="0.4">
<path opacity="0.4" d="M415.952 10.2344H401.925V29.6656H415.952V10.2344Z" fill="black"/>
<path opacity="0.4" d="M440.214 0H425.428V29.6656H440.214V0Z" fill="black"/>
</g>
<path d="M522.817 87.3711H506.281V103.907H522.817V87.3711Z" fill="white"/>
<g opacity="0.1">
<path opacity="0.1" d="M451.192 133.542H460.002L517.847 48.6171L512.32 41.6807L451.192 133.542Z" fill="black"/>
</g>
<g opacity="0.1">
<path opacity="0.1" d="M297.213 133.542V142.723L451.192 133.542H297.213Z" fill="black"/>
</g>
<g opacity="0.1">
<path opacity="0.1" d="M582.334 129.423L616.923 140.896V129.423H582.334Z" fill="black"/>
</g>
<path d="M425.428 409.171H337.376V420.613H425.428V409.171Z" fill="#E6E6E6"/>
<path d="M423.122 409.326C423.122 409.543 404.078 409.728 380.59 409.728C357.102 409.728 338.073 409.543 338.073 409.326C338.073 409.109 357.102 408.923 380.59 408.923C404.078 408.923 423.122 409.094 423.122 409.326Z" fill="#E0E0E0"/>
<path d="M423.122 419.56C423.122 419.777 404.078 419.963 380.59 419.963C357.102 419.963 338.073 419.777 338.073 419.56C338.073 419.344 357.102 419.158 380.59 419.158C404.078 419.158 423.122 419.266 423.122 419.56Z" fill="#E0E0E0"/>
<path d="M418.694 149.288H345.319V218.992H418.694V149.288Z" fill="white"/>
<path d="M378.515 149.288C378.515 149.288 357.706 184.759 346.31 185.069C346.31 185.069 356.869 190.457 357.675 218.992H345.288V149.319L378.515 149.288Z" fill="#696871"/>
<path d="M385.498 149.288C385.498 149.288 406.292 184.759 417.703 185.069C417.703 185.069 407.128 190.457 406.338 218.992H418.725V149.319L385.498 149.288Z" fill="#696871"/>
<path d="M382.571 148.668H380.249V223.018H382.571V148.668Z" fill="#263238"/>
<path d="M344.235 184.682V187.004H418.585V184.682H344.235Z" fill="#263238"/>
<path d="M422.379 218.993H340.427V220.727H422.379V218.993Z" fill="#263238"/>
<path d="M571.883 149.288H498.509V218.992H571.883V149.288Z" fill="white"/>
<path d="M531.704 149.288C531.704 149.288 510.91 184.759 499.499 185.069C499.499 185.069 510.074 190.457 510.864 218.992H498.478V149.319L531.704 149.288Z" fill="#696871"/>
<path d="M538.688 149.288C538.688 149.288 559.481 184.759 570.892 185.069C570.892 185.069 560.333 190.457 559.528 218.992H571.914V149.319L538.688 149.288Z" fill="#696871"/>
<path d="M535.761 148.668H533.438V223.018H535.761V148.668Z" fill="#263238"/>
<path d="M497.425 184.682V187.004H571.775V184.682H497.425Z" fill="#263238"/>
<path d="M575.584 218.993H493.632V220.727H575.584V218.993Z" fill="#263238"/>
<path d="M571.883 296.485H498.509V366.19H571.883V296.485Z" fill="white"/>
<path d="M531.704 296.485C531.704 296.485 510.91 331.973 499.499 332.282C499.499 332.282 510.074 337.67 510.864 366.19H498.478V296.516L531.704 296.485Z" fill="#696871"/>
<path d="M538.688 296.485C538.688 296.485 559.481 331.973 570.892 332.282C570.892 332.282 560.333 337.67 559.528 366.19H571.914V296.516L538.688 296.485Z" fill="#696871"/>
<path d="M535.761 295.866H533.438V370.215H535.761V295.866Z" fill="#263238"/>
<path d="M497.425 331.895V334.217H571.775V331.895H497.425Z" fill="#263238"/>
<path d="M575.584 366.19H493.632V367.924H575.584V366.19Z" fill="#263238"/>
<path d="M304.645 358.077V590.819H324.618V373.715H476.584V358.077H304.645Z" fill="#455A64"/>
<path d="M324.618 373.715H318.161V590.818H324.618V373.715Z" fill="#263238"/>
<path d="M476.584 358.077H464.43V373.715H476.584V358.077Z" fill="#263238"/>
<path d="M480.161 385.11H333.536V477.575H480.161V385.11Z" fill="#696871"/>
<path d="M480.161 385.11H333.536V477.575H480.161V385.11Z" fill="#696871"/>
<path d="M480.176 385.11H472.078V477.575H480.176V385.11Z" fill="#696871"/>
<g opacity="0.2">
<path opacity="0.2" d="M480.176 385.11H472.078V477.575H480.176V385.11Z" fill="black"/>
</g>
<path d="M464.43 469.602C464.43 469.602 464.43 469.106 464.43 468.193C464.43 467.279 464.43 465.901 464.43 464.152C464.43 460.591 464.43 455.404 464.353 448.761C464.353 435.461 464.26 416.355 464.182 393.022L464.508 393.332L342.191 393.425L342.594 393.022C342.594 420.18 342.594 446.067 342.594 469.633L342.222 469.261L430.166 469.431L455.388 469.54H462.123H463.857H464.461H462.201H455.543L430.383 469.648L342.129 469.834H341.758V469.462C341.758 445.897 341.758 420.009 341.758 392.852V392.434H342.176L464.492 392.527H464.802V392.945C464.802 416.386 464.678 435.57 464.647 448.916C464.647 455.528 464.647 460.683 464.554 464.229V468.208C464.446 469.153 464.43 469.602 464.43 469.602Z" fill="#263238"/>
<path d="M361.855 373.715H357.504V385.11H361.855V373.715Z" fill="#696871"/>
<path d="M433.464 373.715H429.113V385.11H433.464V373.715Z" fill="#696871"/>
<path d="M381.982 412.067V416.928H391.721V421.759H381.982V429.315H375.789V407.236H393.099V412.067H381.982Z" fill="#696871"/>
<path opacity="0.2" d="M381.982 412.067V416.928H391.721V421.759H381.982V429.315H375.789V407.236H393.099V412.067H381.982Z" fill="black"/>
<path d="M394.663 418.275C394.663 411.664 399.865 406.802 406.926 406.802C413.986 406.802 419.204 411.664 419.204 418.275C419.204 424.886 414.001 429.764 406.926 429.764C399.85 429.764 394.663 424.902 394.663 418.275ZM412.887 418.275C412.82 417.109 412.413 415.988 411.717 415.051C411.02 414.114 410.065 413.401 408.967 413.001C407.87 412.601 406.68 412.531 405.544 412.8C404.407 413.069 403.375 413.665 402.573 414.514C401.772 415.363 401.237 416.429 401.034 417.579C400.831 418.729 400.97 419.913 401.433 420.985C401.896 422.057 402.663 422.97 403.639 423.611C404.615 424.252 405.758 424.593 406.926 424.592C407.741 424.601 408.55 424.44 409.301 424.121C410.051 423.802 410.728 423.331 411.288 422.737C411.847 422.144 412.278 421.441 412.554 420.673C412.829 419.906 412.942 419.089 412.887 418.275Z" fill="#696871"/>
<path opacity="0.2" d="M394.663 418.275C394.663 411.664 399.865 406.802 406.926 406.802C413.986 406.802 419.204 411.664 419.204 418.275C419.204 424.886 414.001 429.764 406.926 429.764C399.85 429.764 394.663 424.902 394.663 418.275ZM412.887 418.275C412.82 417.109 412.413 415.988 411.717 415.051C411.02 414.114 410.065 413.401 408.967 413.001C407.87 412.601 406.68 412.531 405.544 412.8C404.407 413.069 403.375 413.665 402.573 414.514C401.772 415.363 401.237 416.429 401.034 417.579C400.831 418.729 400.97 419.913 401.433 420.985C401.896 422.057 402.663 422.97 403.639 423.611C404.615 424.252 405.758 424.593 406.926 424.592C407.741 424.601 408.55 424.44 409.301 424.121C410.051 423.802 410.728 423.331 411.288 422.737C411.847 422.144 412.278 421.441 412.554 420.673C412.829 419.906 412.942 419.089 412.887 418.275Z" fill="black"/>
<path d="M432.132 423.447H428.725V429.315H422.532V407.236H432.627C438.65 407.236 442.428 410.332 442.428 415.411C442.487 416.871 442.107 418.315 441.337 419.557C440.567 420.799 439.442 421.782 438.108 422.378L442.877 429.315H436.142L432.132 423.447ZM432.132 412.159H428.664V418.631H432.132C434.717 418.631 436.018 417.424 436.018 415.411C436.018 413.398 434.779 412.159 432.194 412.159H432.132Z" fill="#696871"/>
<path opacity="0.2" d="M432.132 423.447H428.725V429.315H422.532V407.236H432.627C438.65 407.236 442.428 410.332 442.428 415.411C442.487 416.871 442.107 418.315 441.337 419.557C440.567 420.799 439.442 421.782 438.108 422.378L442.877 429.315H436.142L432.132 423.447ZM432.132 412.159H428.664V418.631H432.132C434.717 418.631 436.018 417.424 436.018 415.411C436.018 413.398 434.779 412.159 432.194 412.159H432.132Z" fill="black"/>
<path d="M364.425 458.717L366.577 453.886C368.859 455.343 371.503 456.131 374.21 456.162C376.92 456.162 377.988 455.404 377.988 454.289C377.988 450.619 364.812 453.298 364.812 444.689C364.812 440.555 368.187 437.18 375.077 437.18C378.001 437.132 380.889 437.83 383.469 439.208L381.456 444.07C379.496 442.95 377.288 442.333 375.031 442.274C372.29 442.274 371.299 443.203 371.299 444.364C371.299 447.894 384.429 445.262 384.429 453.793C384.429 457.819 381.054 461.256 374.179 461.256C370.754 461.342 367.374 460.462 364.425 458.717Z" fill="#696871"/>
<path opacity="0.2" d="M364.425 458.717L366.577 453.886C368.859 455.343 371.503 456.131 374.21 456.162C376.92 456.162 377.988 455.404 377.988 454.289C377.988 450.619 364.812 453.298 364.812 444.689C364.812 440.555 368.187 437.18 375.077 437.18C378.001 437.132 380.889 437.83 383.469 439.208L381.456 444.07C379.496 442.95 377.288 442.333 375.031 442.274C372.29 442.274 371.299 443.203 371.299 444.364C371.299 447.894 384.429 445.262 384.429 453.793C384.429 457.819 381.054 461.256 374.179 461.256C370.754 461.342 367.374 460.462 364.425 458.717Z" fill="black"/>
<path d="M402.962 456.302H393.161L391.35 460.807H384.661L394.88 437.583H401.336L411.586 460.807H404.774L402.962 456.302ZM401.042 451.471L398.054 444.039L395.081 451.44L401.042 451.471Z" fill="#696871"/>
<path opacity="0.2" d="M402.962 456.302H393.161L391.35 460.807H384.661L394.88 437.583H401.336L411.586 460.807H404.774L402.962 456.302ZM401.042 451.471L398.054 444.039L395.081 451.44L401.042 451.471Z" fill="black"/>
<path d="M413.444 437.645H419.994V455.605H431.049V460.807H413.444V437.645Z" fill="#696871"/>
<path opacity="0.2" d="M413.444 437.645H419.994V455.605H431.049V460.807H413.444V437.645Z" fill="black"/>
<path d="M452.213 455.744V460.807H433.634V437.583H451.78V442.646H440.106V446.547H450.386V451.44H440.106V455.682L452.213 455.744Z" fill="#696871"/>
<path opacity="0.2" d="M452.213 455.744V460.807H433.634V437.583H451.78V442.646H440.106V446.547H450.386V451.44H440.106V455.682L452.213 455.744Z" fill="black"/>
<path d="M461.55 399.324C461.473 399.324 461.457 399.03 461.287 398.565C461.062 397.937 460.645 397.395 460.095 397.017C459.7 396.735 459.241 396.556 458.76 396.497C458.279 396.437 457.79 396.499 457.339 396.676C456.797 396.883 456.33 397.25 456.001 397.729C455.672 398.207 455.496 398.774 455.496 399.355C455.5 399.934 455.678 400.5 456.006 400.977C456.335 401.455 456.799 401.823 457.339 402.033C457.792 402.203 458.279 402.26 458.759 402.201C459.238 402.141 459.697 401.967 460.095 401.693C460.641 401.31 461.057 400.77 461.287 400.144C461.457 399.68 461.473 399.401 461.55 399.401C461.628 399.401 461.674 399.68 461.55 400.222C461.419 400.998 461.006 401.699 460.389 402.188C459.927 402.562 459.378 402.812 458.793 402.915C458.208 403.018 457.606 402.97 457.045 402.777C456.347 402.528 455.743 402.069 455.316 401.463C454.889 400.857 454.66 400.135 454.66 399.394C454.66 398.653 454.889 397.93 455.316 397.324C455.743 396.718 456.347 396.26 457.045 396.01C457.606 395.817 458.208 395.769 458.793 395.872C459.378 395.975 459.927 396.225 460.389 396.599C461.006 397.088 461.419 397.789 461.55 398.565C461.674 399.03 461.581 399.324 461.55 399.324Z" fill="#263238"/>
<path d="M460.079 397.389C460.234 397.544 459.661 398.411 458.779 399.34C457.896 400.269 457.076 400.888 456.905 400.749C456.735 400.609 457.323 399.727 458.206 398.798C459.088 397.869 459.909 397.234 460.079 397.389Z" fill="#263238"/>
<path d="M460.419 400.532C460.419 400.733 459.227 400.532 458.159 399.572C457.09 398.612 456.61 397.667 456.781 397.544C456.951 397.42 457.694 398.147 458.67 398.953C459.645 399.758 460.512 400.315 460.419 400.532Z" fill="#263238"/>
<path d="M460.358 464.601C460.358 464.601 460.265 464.307 460.11 463.842C459.88 463.216 459.464 462.676 458.918 462.294C458.523 462.013 458.064 461.835 457.583 461.776C457.102 461.716 456.614 461.777 456.162 461.953C455.62 462.16 455.153 462.527 454.824 463.006C454.495 463.484 454.319 464.051 454.319 464.632C454.329 465.198 454.504 465.749 454.823 466.217C455.142 466.685 455.591 467.049 456.115 467.264C456.568 467.433 457.055 467.49 457.535 467.431C458.015 467.372 458.473 467.198 458.871 466.923C459.413 466.536 459.828 465.997 460.064 465.375C460.218 464.91 460.249 464.632 460.311 464.632C460.373 464.632 460.451 464.91 460.311 465.452C460.18 466.225 459.773 466.924 459.166 467.419C458.703 467.791 458.154 468.041 457.569 468.144C456.984 468.246 456.383 468.2 455.821 468.007C455.116 467.765 454.504 467.309 454.071 466.703C453.638 466.096 453.405 465.369 453.405 464.624C453.405 463.879 453.638 463.152 454.071 462.545C454.504 461.939 455.116 461.483 455.821 461.241C456.383 461.049 456.984 461.002 457.569 461.104C458.154 461.207 458.703 461.457 459.166 461.829C459.773 462.324 460.18 463.023 460.311 463.796C460.497 464.307 460.404 464.601 460.358 464.601Z" fill="#263238"/>
<path d="M458.887 462.619C459.057 462.774 458.485 463.641 457.602 464.57C456.72 465.499 455.899 466.118 455.729 465.979C455.558 465.839 456.147 464.957 457.014 464.028C457.881 463.099 458.732 462.51 458.887 462.619Z" fill="#263238"/>
<path d="M459.212 465.808C459.212 466.009 458.02 465.731 456.952 464.848C455.883 463.966 455.403 462.944 455.574 462.82C455.744 462.696 456.487 463.424 457.463 464.229C458.438 465.034 459.336 465.591 459.212 465.808Z" fill="#263238"/>
<path d="M351.929 463.021C351.929 463.021 351.837 462.743 351.666 462.278C351.436 461.653 351.02 461.112 350.474 460.73C350.076 460.456 349.618 460.281 349.138 460.222C348.658 460.163 348.171 460.22 347.718 460.389C347.179 460.602 346.716 460.97 346.388 461.447C346.06 461.925 345.881 462.489 345.876 463.068C345.885 463.645 346.066 464.205 346.398 464.677C346.729 465.149 347.194 465.511 347.733 465.716C348.185 465.893 348.673 465.955 349.155 465.895C349.636 465.836 350.095 465.657 350.489 465.375C351.04 464.997 351.457 464.455 351.682 463.827C351.852 463.362 351.867 463.068 351.945 463.068C352.022 463.068 352.069 463.362 351.945 463.904C351.814 464.68 351.4 465.381 350.784 465.87C350.322 466.244 349.773 466.494 349.188 466.597C348.603 466.7 348.001 466.653 347.439 466.459C346.741 466.21 346.138 465.751 345.711 465.145C345.284 464.54 345.055 463.817 345.055 463.076C345.055 462.335 345.284 461.612 345.711 461.006C346.138 460.4 346.741 459.942 347.439 459.693C348.001 459.499 348.603 459.451 349.188 459.554C349.773 459.657 350.322 459.907 350.784 460.281C351.4 460.771 351.814 461.471 351.945 462.247C352.053 462.743 351.96 463.037 351.929 463.021Z" fill="#263238"/>
<path d="M350.459 461.071C350.614 461.21 350.041 462.093 349.174 463.021C348.307 463.95 347.456 464.57 347.285 464.43C347.115 464.291 347.703 463.393 348.586 462.464C349.468 461.535 350.289 460.947 350.459 461.071Z" fill="#263238"/>
<path d="M350.83 464.245C350.753 464.446 349.638 464.152 348.57 463.285C347.501 462.418 347.021 461.365 347.192 461.257C347.362 461.148 348.105 461.86 349.081 462.65C350.056 463.44 350.83 464.028 350.83 464.245Z" fill="#263238"/>
<path d="M352.502 400.594C352.425 400.594 352.41 400.315 352.239 399.85C352.009 399.225 351.593 398.684 351.047 398.302C350.649 398.028 350.191 397.853 349.711 397.794C349.231 397.735 348.744 397.792 348.291 397.961C347.751 398.172 347.287 398.54 346.958 399.018C346.63 399.495 346.452 400.06 346.449 400.64C346.448 401.221 346.624 401.788 346.953 402.266C347.282 402.744 347.749 403.111 348.291 403.319C348.742 403.496 349.231 403.558 349.712 403.498C350.194 403.439 350.652 403.26 351.047 402.978C351.597 402.6 352.015 402.058 352.239 401.43C352.41 400.965 352.425 400.671 352.502 400.671C352.58 400.671 352.626 400.965 352.502 401.507C352.371 402.283 351.958 402.984 351.341 403.473C350.88 403.847 350.33 404.097 349.745 404.2C349.16 404.303 348.558 404.256 347.997 404.062C347.299 403.813 346.695 403.354 346.268 402.748C345.841 402.143 345.612 401.42 345.612 400.679C345.612 399.938 345.841 399.215 346.268 398.609C346.695 398.004 347.299 397.545 347.997 397.296C348.558 397.102 349.16 397.054 349.745 397.157C350.33 397.26 350.88 397.51 351.341 397.884C351.958 398.374 352.371 399.074 352.502 399.85C352.626 400.315 352.533 400.594 352.502 400.594Z" fill="#263238"/>
<path d="M351.032 398.674C351.186 398.813 350.614 399.696 349.731 400.625C348.848 401.554 348.028 402.173 347.857 402.034C347.687 401.895 348.276 400.997 349.158 400.068C350.041 399.139 350.83 398.519 351.032 398.674Z" fill="#263238"/>
<path d="M351.372 401.817C351.295 402.018 350.18 401.724 349.112 400.857C348.043 399.99 347.563 398.937 347.734 398.828C347.904 398.72 348.647 399.432 349.623 400.222C350.598 401.011 351.465 401.6 351.372 401.817Z" fill="#263238"/>
<path d="M375.773 412.067V416.928H385.512V421.759H375.773V429.315H369.58V407.236H386.906V412.067H375.773Z" fill="#FAFAFA"/>
<path d="M388.454 418.275C388.454 411.664 393.656 406.802 400.717 406.802C407.777 406.802 412.979 411.664 412.979 418.275C412.979 424.886 407.777 429.764 400.717 429.764C393.656 429.764 388.454 424.902 388.454 418.275ZM406.678 418.275C406.611 417.109 406.204 415.988 405.508 415.051C404.811 414.114 403.856 413.401 402.759 413.001C401.661 412.601 400.471 412.531 399.335 412.8C398.198 413.069 397.166 413.665 396.364 414.514C395.563 415.363 395.028 416.429 394.825 417.579C394.623 418.729 394.761 419.913 395.224 420.985C395.687 422.057 396.454 422.97 397.43 423.611C398.406 424.252 399.549 424.593 400.717 424.592C401.532 424.601 402.341 424.44 403.092 424.121C403.842 423.802 404.519 423.331 405.079 422.737C405.638 422.144 406.069 421.441 406.345 420.673C406.62 419.906 406.733 419.089 406.678 418.275Z" fill="#FAFAFA"/>
<path d="M425.924 423.447H422.517V429.315H416.324V407.236H426.419C432.442 407.236 436.235 410.332 436.235 415.411C436.295 416.871 435.915 418.315 435.145 419.557C434.375 420.799 433.25 421.782 431.916 422.378L436.669 429.315H429.98L425.924 423.447ZM425.924 412.159H422.517V418.631H425.986C428.571 418.631 429.856 417.424 429.856 415.411C429.856 413.398 428.571 412.159 425.986 412.159H425.924Z" fill="#FAFAFA"/>
<path d="M358.2 458.717L360.352 453.886C362.641 455.341 365.289 456.129 368.001 456.162C370.71 456.162 371.763 455.404 371.763 454.289C371.763 450.619 358.603 453.298 358.603 444.689C358.603 440.555 361.978 437.18 368.853 437.18C371.782 437.132 374.675 437.83 377.26 439.208L375.232 444.039C373.276 442.921 371.074 442.304 368.822 442.243C366.081 442.243 365.09 443.172 365.09 444.333C365.09 447.863 378.22 445.231 378.22 453.762C378.22 457.788 374.844 461.225 367.955 461.225C364.532 461.319 361.153 460.45 358.2 458.717Z" fill="#FAFAFA"/>
<path d="M396.738 456.302H386.952L385.125 460.807H378.452L388.671 437.583H395.127L405.377 460.807H398.565L396.738 456.302ZM394.818 451.471L391.845 444.039L388.872 451.44L394.818 451.471Z" fill="#FAFAFA"/>
<path d="M407.235 437.645H413.769V455.605H424.824V460.807H407.235V437.645Z" fill="#FAFAFA"/>
<path d="M445.99 455.744V460.807H427.41V437.583H445.572V442.646H433.898V446.547H444.178V451.44H433.898V455.682L445.99 455.744Z" fill="#FAFAFA"/>
<path d="M535.807 556.539C526.517 551.538 522.785 544.478 520.587 534.151C519.529 528.966 519.594 523.616 520.777 518.459C521.96 513.301 524.234 508.458 527.446 504.253C532.849 497.301 540.777 492.222 544.477 484.249C548.41 475.733 546.985 464.91 552.977 457.711C557.096 452.756 563.723 450.79 569.002 447.089C573.291 443.993 576.636 439.905 580.475 436.251C584.315 432.597 589.007 429.501 594.255 429.284C602.183 428.974 609.181 435.988 610.466 443.807C611.751 451.626 608.221 459.662 602.802 465.483C598.885 469.679 593.837 473.132 591.561 478.412C587.272 488.336 594.364 500.599 589.657 510.322C586.22 517.429 577.054 521.687 576.636 529.568C576.465 532.463 577.611 535.265 577.921 538.145C578.896 547.172 571.309 555.409 562.623 558.026C553.937 560.642 544.555 558.908 535.807 556.477" fill="#696871"/>
<path d="M580.894 462.991C580.666 463.408 580.39 463.798 580.073 464.152L577.549 467.357C576.435 468.719 575.088 470.454 573.648 472.466C572.208 474.479 570.427 476.755 568.77 479.434C567.903 480.75 566.99 482.128 566.061 483.568C565.132 485.008 564.265 486.664 563.305 488.213C561.37 491.309 559.604 494.917 557.669 498.602C549.563 514.796 544.031 532.154 541.273 550.052C540.715 554.186 540.111 558.103 539.879 561.804C539.74 563.646 539.538 565.427 539.461 567.145C539.384 568.864 539.353 570.521 539.291 572.1C539.105 575.197 539.291 578.107 539.291 580.6C539.291 583.093 539.399 585.245 539.538 587.026C539.678 588.806 539.693 590.122 539.755 591.098C539.795 591.572 539.795 592.048 539.755 592.522C539.631 592.062 539.559 591.589 539.538 591.113C539.43 590.076 539.291 588.729 539.12 587.057C538.95 585.384 538.733 583.139 538.687 580.631C538.64 578.123 538.424 575.243 538.548 572.084C538.548 570.536 538.625 568.833 538.656 567.114C538.687 565.396 538.888 563.584 539.012 561.726C539.213 558.01 539.786 554.062 540.313 549.897C542.979 531.868 548.531 514.386 556.756 498.122C558.722 494.421 560.533 490.876 562.515 487.717C563.491 486.169 564.373 484.621 565.333 483.072L568.12 478.954C569.839 476.291 571.65 474.061 573.152 472.048C574.654 470.036 576.032 468.363 577.209 467.032L579.887 463.935C580.187 463.584 580.524 463.267 580.894 462.991Z" fill="#263238"/>
<path d="M495.102 522.678C496.96 522.831 498.768 523.355 500.42 524.219C502.071 525.084 503.533 526.271 504.717 527.71C507.069 530.614 508.722 534.02 509.548 537.665C511.344 544.633 510.136 552.823 508.093 559.713C500.583 556.973 496.016 548.875 493.956 544.664C490.69 537.959 488.878 523.885 495.102 522.678Z" fill="#696871"/>
<path d="M518.853 568.244C517.734 566.485 517.103 564.459 517.024 562.375C516.945 560.291 517.422 558.224 518.404 556.384C519.407 554.559 520.764 552.953 522.397 551.661C524.03 550.369 525.904 549.416 527.911 548.859C528.807 548.505 529.77 548.348 530.732 548.402C531.694 548.455 532.634 548.717 533.485 549.169C534.204 549.725 534.76 550.463 535.095 551.308C535.43 552.152 535.532 553.072 535.389 553.969C535.093 555.752 534.329 557.424 533.175 558.815C529.475 563.739 524.985 567.826 518.853 568.291" fill="#696871"/>
<g opacity="0.2">
<path opacity="0.2" d="M495.102 522.678C496.96 522.831 498.768 523.355 500.42 524.219C502.071 525.084 503.533 526.271 504.717 527.71C507.069 530.614 508.722 534.02 509.548 537.665C511.344 544.633 510.136 552.823 508.093 559.713C500.583 556.973 496.016 548.875 493.956 544.664C490.69 537.959 488.878 523.885 495.102 522.678Z" fill="black"/>
</g>
<g opacity="0.2">
<path opacity="0.2" d="M518.853 568.244C517.734 566.485 517.103 564.459 517.024 562.375C516.945 560.291 517.422 558.224 518.404 556.384C519.407 554.559 520.764 552.953 522.397 551.661C524.03 550.369 525.904 549.416 527.911 548.859C528.807 548.505 529.77 548.348 530.732 548.402C531.694 548.455 532.634 548.717 533.485 549.169C534.204 549.725 534.76 550.463 535.095 551.308C535.43 552.152 535.532 553.072 535.389 553.969C535.093 555.752 534.329 557.424 533.175 558.815C529.475 563.739 524.985 567.826 518.853 568.291" fill="black"/>
</g>
<g opacity="0.2">
<path opacity="0.2" d="M511.034 575.072C508.556 571.445 505.25 568.461 501.389 566.366C497.528 564.271 493.223 563.126 488.832 563.026C486.602 563.026 483.954 563.522 483.072 565.581C482.189 567.64 483.66 569.916 485.27 571.465C488.691 574.638 492.975 576.729 497.582 577.473C502.188 578.217 506.912 577.581 511.158 575.645" fill="black"/>
</g>
<path d="M511.034 575.072C508.556 571.445 505.25 568.461 501.389 566.366C497.528 564.271 493.223 563.126 488.832 563.026C486.602 563.026 483.954 563.522 483.072 565.581C482.189 567.64 483.66 569.916 485.27 571.465C488.691 574.638 492.975 576.729 497.582 577.473C502.188 578.217 506.912 577.581 511.158 575.645" fill="#696871"/>
<path d="M518.915 592.135C518.718 591.671 518.592 591.181 518.543 590.679C518.357 589.719 518.109 588.341 517.862 586.623C517.138 582.127 517.024 577.555 517.521 573.029C518.068 568.45 519.857 564.108 522.692 560.472C523.55 559.384 524.544 558.411 525.65 557.577C526.036 557.247 526.469 556.975 526.935 556.771C525.565 558.016 524.297 559.367 523.141 560.813C520.539 564.475 518.904 568.736 518.388 573.199C517.921 577.659 517.962 582.157 518.512 586.607C518.751 588.441 518.886 590.286 518.915 592.135Z" fill="#263238"/>
<path d="M497.44 533.284C497.862 533.999 498.229 534.744 498.54 535.513C499.221 536.969 500.088 539.105 501.265 541.706C503.51 546.986 506.498 554.325 509.595 562.5C512.691 570.675 515.308 578.169 517.104 583.619C518.017 586.329 518.652 588.543 519.179 590.076C519.457 590.863 519.674 591.67 519.829 592.491C519.445 591.752 519.129 590.98 518.884 590.184C518.296 588.543 517.506 586.391 516.562 583.805C514.627 578.401 511.917 570.969 508.82 562.794C505.724 554.619 502.829 547.311 500.723 541.923L498.246 535.606C497.912 534.856 497.642 534.079 497.44 533.284Z" fill="#263238"/>
<path d="M492.671 568.492C493.149 568.424 493.633 568.424 494.111 568.492C494.678 568.516 495.242 568.584 495.799 568.694C496.545 568.804 497.285 568.959 498.013 569.158C499.91 569.644 501.756 570.313 503.525 571.155C505.68 572.225 507.715 573.523 509.594 575.026C511.452 576.554 513.134 578.283 514.611 580.182C515.814 581.731 516.852 583.402 517.707 585.167C518.049 585.835 518.349 586.522 518.605 587.227C518.824 587.73 519.011 588.247 519.163 588.775C519.338 589.231 519.442 589.712 519.472 590.199C519.333 590.199 518.76 588.264 517.212 585.369C516.318 583.684 515.282 582.078 514.115 580.569C512.627 578.752 510.968 577.083 509.16 575.583C507.324 574.126 505.354 572.845 503.277 571.759C501.559 570.902 499.773 570.193 497.935 569.638C494.699 568.802 492.656 568.647 492.671 568.492Z" fill="#263238"/>
<path d="M141.809 587.165L141.422 590.586C141.422 590.586 132.396 611.767 134.068 613.362C135.206 614.434 136.642 615.137 138.187 615.377C139.732 615.618 141.313 615.385 142.723 614.709C146.718 613.052 161.767 593.822 161.767 593.822L162.371 591.004L141.809 587.165Z" fill="#696871"/>
<path d="M134.671 608.903C134.671 608.903 139.471 605.806 143.481 611.999C143.481 611.999 145.587 610.823 150.96 604.66C156.332 598.498 161.504 592.506 161.504 592.506C161.504 592.506 162.061 591.902 161.953 592.506C161.844 593.11 161.72 593.977 161.72 593.977L151.44 606.363C151.44 606.363 145.246 613.625 143.543 614.399C141.789 615.475 139.688 615.835 137.675 615.406C136.133 615.1 134.757 614.241 133.804 612.99C133.758 612.634 134.671 608.903 134.671 608.903Z" fill="#F0F0F0"/>
<path d="M144.519 614.074C143.7 612.216 142.325 610.658 140.584 609.612C138.843 608.567 136.821 608.087 134.796 608.237C135.373 608.019 135.993 607.935 136.607 607.989C138.1 608.014 139.559 608.436 140.834 609.212C142.116 609.961 143.182 611.028 143.931 612.309C144.273 612.838 144.475 613.446 144.519 614.074Z" fill="#263238"/>
<path d="M162.371 591.515C162.088 591.937 161.777 592.341 161.442 592.723L158.841 595.912L149.876 606.301C148.286 608.274 146.53 610.108 144.628 611.782C143.018 613.156 141.01 613.976 138.899 614.12C137.466 614.169 136.061 613.708 134.935 612.82C134.522 612.505 134.184 612.103 133.944 611.643C134.291 612.01 134.663 612.352 135.059 612.665C136.169 613.463 137.519 613.856 138.883 613.78C140.908 613.591 142.821 612.767 144.349 611.426C146.217 609.758 147.947 607.941 149.52 605.992L158.578 595.68L161.365 592.583C161.667 592.197 162.003 591.839 162.371 591.515Z" fill="#263238"/>
<path d="M144.782 602.632C143.926 602.421 143.103 602.093 142.336 601.657C141.51 601.354 140.72 600.959 139.982 600.48C140.879 600.52 141.754 600.769 142.537 601.208C143.384 601.506 144.152 601.993 144.782 602.632Z" fill="#263238"/>
<path d="M146.904 599.443C145.916 599.341 144.944 599.123 144.008 598.792C143.031 598.622 142.08 598.331 141.175 597.925C143.183 597.958 145.152 598.49 146.904 599.474V599.443Z" fill="#263238"/>
<path d="M148.901 596.687C148.808 596.795 147.585 596.052 145.897 595.541C144.21 595.03 142.801 594.922 142.801 594.782C143.909 594.633 145.037 594.727 146.106 595.055C147.175 595.384 148.161 595.941 148.994 596.687H148.901Z" fill="#263238"/>
<path d="M149.83 593.621C149.752 593.745 148.637 593.187 147.167 592.8C146.253 592.637 145.348 592.425 144.457 592.165C145.404 592.028 146.37 592.087 147.294 592.337C148.218 592.588 149.081 593.024 149.83 593.621Z" fill="#455A64"/>
<path d="M148.808 591.02C148.209 590.9 147.644 590.652 147.151 590.292C146.598 589.957 146.08 589.568 145.603 589.131C145.34 588.883 145.061 588.605 144.782 588.31C144.626 588.153 144.491 587.976 144.38 587.784C144.304 587.66 144.265 587.518 144.265 587.374C144.265 587.229 144.304 587.087 144.38 586.963C144.54 586.767 144.756 586.625 145 586.556C145.244 586.487 145.503 586.494 145.742 586.576C146.148 586.669 146.528 586.848 146.857 587.103C147.391 587.527 147.798 588.089 148.034 588.729C148.298 589.282 148.405 589.898 148.343 590.509C148.343 590.509 148.173 589.828 147.724 588.868C147.466 588.314 147.078 587.831 146.594 587.459C146.098 587.087 145.154 586.778 144.782 587.227C144.643 587.397 144.782 587.707 145.123 588.001C145.365 588.284 145.623 588.553 145.897 588.806C146.355 589.24 146.842 589.643 147.352 590.014C148.219 590.648 148.839 590.958 148.808 591.02Z" fill="#455A64"/>
<path d="M148.483 590.726C148.493 590.093 148.693 589.479 149.055 588.961C149.398 588.356 149.862 587.829 150.418 587.412C150.746 587.165 151.105 586.962 151.486 586.808C151.706 586.715 151.945 586.678 152.183 586.7C152.334 586.709 152.479 586.76 152.603 586.848C152.726 586.935 152.822 587.056 152.88 587.196C152.939 587.434 152.94 587.684 152.884 587.924C152.827 588.164 152.714 588.386 152.555 588.574C152.343 588.924 152.082 589.242 151.78 589.518C151.275 589.985 150.672 590.334 150.015 590.54C149.433 590.787 148.783 590.831 148.173 590.664C148.76 590.55 149.339 590.4 149.907 590.215C150.483 589.976 151.009 589.629 151.455 589.193C151.719 588.935 151.948 588.643 152.137 588.326C152.245 588.193 152.325 588.039 152.373 587.874C152.421 587.709 152.435 587.536 152.415 587.366C152.338 587.134 151.966 587.118 151.626 587.257C151.286 587.395 150.964 587.572 150.666 587.784C150.14 588.137 149.684 588.583 149.319 589.1C148.715 590.044 148.575 590.741 148.483 590.726Z" fill="#455A64"/>
<path d="M158.733 590.494C158.156 590.475 157.585 590.609 157.076 590.881C155.904 591.637 155.012 592.758 154.537 594.07C154.062 595.388 154.003 596.82 154.367 598.173C154.645 599.21 155.017 599.799 154.955 599.845C154.516 599.421 154.2 598.886 154.041 598.297C153.528 596.887 153.528 595.341 154.041 593.931C154.55 592.514 155.557 591.33 156.875 590.602C158.021 590.045 158.841 590.447 158.733 590.494Z" fill="#263238"/>
<path d="M152.911 599.412C152.485 600.272 151.92 601.057 151.239 601.734C150.675 602.51 149.984 603.186 149.195 603.731C149.622 602.871 150.187 602.086 150.867 601.409C151.431 600.633 152.122 599.958 152.911 599.412Z" fill="#263238"/>
<path d="M155.001 597.492C155.14 597.492 155.295 597.77 155.435 598.158C155.574 598.545 155.636 598.885 155.435 598.947C155.233 599.009 155.047 598.746 154.908 598.312C154.769 597.879 154.877 597.523 155.001 597.492Z" fill="#263238"/>
<path d="M155.218 594.426C155.341 594.426 155.326 594.828 155.218 595.231C155.109 595.633 155.016 595.959 154.877 595.943C154.738 595.928 154.645 595.572 154.738 595.138C154.83 594.704 155.094 594.379 155.218 594.426Z" fill="#263238"/>
<path d="M157.014 591.949C157.092 592.057 156.89 592.351 156.612 592.63C156.333 592.909 156.039 593.141 155.93 593.064C155.822 592.986 155.93 592.63 156.255 592.305C156.581 591.98 156.921 591.84 157.014 591.949Z" fill="#455A64"/>
<path d="M159.831 590.756C159.831 590.896 159.522 591.035 159.135 591.143C158.747 591.252 158.391 591.298 158.345 591.143C158.298 590.989 158.577 590.772 159.011 590.648C159.444 590.524 159.816 590.632 159.831 590.756Z" fill="#455A64"/>
<path d="M191.464 594.813L194.56 580.646L168.069 574.778L163.424 595.432L165.05 595.912C172.265 597.94 201.884 605.713 207.102 605.31C212.846 604.877 191.464 594.813 191.464 594.813Z" fill="#696871"/>
<path d="M172.992 597.321C173.11 594.999 172.353 592.718 170.871 590.927C169.433 589.141 167.378 587.958 165.111 587.613L163.485 595.061L172.992 597.321Z" fill="#696871"/>
<path d="M201.822 600.124C201.822 600.124 209.207 604.149 208.015 605.233C206.823 606.317 176.507 599.582 163.424 595.432L163.594 594.859L198.803 603.003C198.803 603.003 200.258 599.845 201.822 600.124Z" fill="#F0F0F0"/>
<path d="M163.114 594.751C163.253 594.819 163.398 594.871 163.548 594.906L164.848 595.262L169.617 596.547C173.643 597.6 179.232 598.978 185.441 600.371C191.65 601.765 197.285 602.88 201.388 603.654L206.25 604.521L207.566 604.738H208.031C207.886 604.684 207.735 604.647 207.582 604.629L206.266 604.35L201.435 603.375C197.347 602.554 191.711 601.378 185.518 600C179.325 598.622 173.72 597.321 169.679 596.315L164.895 595.138L163.579 594.828L163.114 594.751Z" fill="#263238"/>
<path d="M198.617 603.422C199.008 602.67 199.481 601.964 200.026 601.316C200.656 600.751 201.346 600.257 202.085 599.845C201.193 599.965 200.376 600.412 199.794 601.099C199.131 601.704 198.712 602.53 198.617 603.422Z" fill="#263238"/>
<path d="M191.695 597.709C191.695 597.786 192.237 597.414 192.748 596.888C193.259 596.362 193.646 595.882 193.584 595.82C193.522 595.758 193.042 596.129 192.516 596.656C191.99 597.182 191.634 597.647 191.695 597.709Z" fill="#263238"/>
<path d="M189.807 596.098C189.807 596.176 190.333 595.99 190.89 595.696C191.448 595.401 191.835 595.061 191.804 594.983C191.773 594.906 191.278 595.092 190.72 595.401C190.163 595.711 189.807 596.021 189.807 596.098Z" fill="#263238"/>
<path d="M189.002 593.296C189.002 593.389 189.575 593.605 190.349 593.791C190.8 593.951 191.283 594.004 191.758 593.946C191.346 593.696 190.888 593.532 190.411 593.466C189.959 593.308 189.478 593.249 189.002 593.296Z" fill="#263238"/>
<path d="M188.925 591.438C189.312 591.843 189.815 592.119 190.365 592.227C190.883 592.449 191.458 592.498 192.006 592.366C191.507 592.163 190.988 592.013 190.458 591.917C189.961 591.716 189.448 591.555 188.925 591.438Z" fill="#263238"/>
<path d="M193.104 595.602C193.646 595.825 194.223 595.95 194.808 595.974C195.441 596.028 196.078 596.028 196.712 595.974C197.094 595.954 197.474 595.892 197.842 595.788C198.072 595.71 198.265 595.55 198.384 595.339C198.438 595.22 198.456 595.088 198.437 594.959C198.417 594.83 198.362 594.71 198.276 594.611C197.701 594.142 196.982 593.886 196.24 593.886C195.498 593.886 194.779 594.142 194.204 594.611C193.87 594.895 193.596 595.242 193.399 595.633C193.317 595.77 193.27 595.924 193.259 596.082C193.544 595.59 193.917 595.155 194.359 594.797C194.84 594.454 195.409 594.255 196 594.224C196.355 594.183 196.715 594.214 197.058 594.315C197.402 594.416 197.721 594.586 197.997 594.813C198.229 595.076 197.997 595.37 197.703 595.479C197.366 595.586 197.018 595.653 196.666 595.68C196.047 595.724 195.426 595.724 194.808 595.68C193.77 595.773 193.12 595.556 193.104 595.602Z" fill="#263238"/>
<path d="M193.523 595.773C193.81 595.459 193.975 595.053 193.988 594.627C194.033 594.17 193.969 593.708 193.802 593.28C193.711 592.999 193.551 592.744 193.338 592.538C193.125 592.333 192.864 592.184 192.579 592.104C192.489 592.102 192.4 592.117 192.317 592.15C192.233 592.182 192.157 592.23 192.092 592.292C192.028 592.354 191.976 592.428 191.94 592.51C191.904 592.592 191.884 592.68 191.882 592.769C191.852 593.053 191.89 593.339 191.99 593.606C192.131 594.03 192.324 594.435 192.563 594.813C192.761 595.174 193.042 595.482 193.384 595.711C193.384 595.711 193.121 595.324 192.764 594.689C192.567 594.313 192.406 593.919 192.284 593.513C192.13 593.095 192.114 592.413 192.563 592.429C193.012 592.444 193.337 593.002 193.523 593.404C193.69 593.784 193.769 594.197 193.755 594.612C193.715 595.006 193.637 595.394 193.523 595.773Z" fill="#263238"/>
<path d="M165.267 587.629C165.267 587.629 166.041 587.722 167.202 588.124C168.724 588.646 170.067 589.587 171.078 590.839C172.089 592.091 172.725 593.602 172.915 595.2C173.055 596.423 172.915 597.197 172.915 597.197C172.98 597.028 173.022 596.851 173.039 596.671C173.099 596.157 173.099 595.637 173.039 595.123C172.912 593.463 172.284 591.88 171.24 590.584C170.195 589.287 168.782 588.338 167.187 587.861C166.708 587.712 166.215 587.613 165.716 587.567C165.452 587.598 165.267 587.598 165.267 587.629Z" fill="#263238"/>
<path d="M170.453 577.193C169.879 578.963 169.398 580.761 169.013 582.581C168.537 584.381 168.165 586.205 167.898 588.047C168.486 586.281 168.967 584.482 169.338 582.659C169.826 580.863 170.199 579.037 170.453 577.193Z" fill="#455A64"/>
<path d="M176.909 595.525C179.363 596.577 181.984 597.185 184.651 597.321C184.651 597.229 182.917 596.95 180.795 596.454C178.674 595.959 176.94 595.432 176.909 595.525Z" fill="#263238"/>
<path d="M171.723 594.364C171.63 594.364 171.723 594.751 171.862 595.2C172.002 595.649 171.971 596.005 172.064 596.021C172.156 596.036 172.296 595.633 172.187 595.122C172.079 594.612 171.785 594.302 171.723 594.364Z" fill="#263238"/>
<path d="M170.298 591.484C170.221 591.484 170.298 591.856 170.546 592.197C170.794 592.537 170.995 592.77 171.072 592.723C171.15 592.677 171.072 592.351 170.825 592.011C170.577 591.67 170.376 591.438 170.298 591.484Z" fill="#455A64"/>
<path d="M167.743 589.75C167.743 589.843 168.099 589.92 168.455 590.153C168.812 590.385 169.059 590.648 169.137 590.602C169.214 590.555 169.137 590.137 168.626 589.874C168.115 589.611 167.743 589.673 167.743 589.75Z" fill="#455A64"/>
<path d="M165.87 588.79C165.87 588.867 165.948 589.038 166.149 589.162C166.35 589.285 166.551 589.347 166.598 589.27C166.644 589.193 166.598 589.022 166.335 588.898C166.071 588.775 165.932 588.713 165.87 588.79Z" fill="#455A64"/>
<path d="M204.083 355.166L172.776 344.08L129.578 351.915L130.817 593.946L171.816 593.404C171.816 593.404 171.816 590.586 171.723 585.662L195.768 592.243C195.768 592.243 219.194 513.093 227.183 480.61C233.795 453.483 204.083 355.166 204.083 355.166ZM171.228 546.227C170.593 487.67 169.757 394.044 170.608 381.859C170.608 381.859 193.57 463.578 193.833 470.499C193.941 474.664 181.214 515.122 171.228 546.227Z" fill="#263238"/>
<path d="M171.63 543.967C171.847 543.967 172.033 554.805 172.033 568.198C172.033 581.591 171.862 592.444 171.645 592.444C171.429 592.444 171.243 581.606 171.227 568.198C171.212 554.789 171.413 543.967 171.63 543.967Z" fill="#455A64"/>
<path d="M180.518 587.66C180.518 587.66 180.518 587.474 180.626 587.102C180.734 586.731 180.843 586.158 181.013 585.554C181.369 584.083 181.88 581.993 182.561 579.361C183.939 573.926 185.906 566.138 188.352 556.539C193.322 537.232 200.166 510.647 207.737 481.291C209.285 475.361 210.833 469.555 212.227 463.997V464.167C207.195 438.527 202.163 416.092 198.184 400.098L193.539 381.302C192.997 379.134 192.579 377.431 192.269 376.239C192.145 375.681 192.037 375.248 191.96 374.922C191.942 374.768 191.942 374.612 191.96 374.458C192.024 374.598 192.075 374.743 192.114 374.892L192.486 376.192C192.827 377.384 193.291 379.072 193.895 381.224C195.087 385.606 196.79 391.985 198.819 399.974C202.937 415.937 208.108 438.372 213.125 464.012V464.167L208.65 481.462C200.909 510.802 194.05 537.355 189.018 556.647L182.979 579.407C182.267 582.055 181.694 584.13 181.307 585.601C181.106 586.282 180.967 586.808 180.843 587.149C180.759 587.334 180.65 587.506 180.518 587.66Z" fill="#455A64"/>
<path d="M148.08 591.933C147.864 591.933 147.678 543.224 147.678 483.149C147.678 423.075 147.864 374.365 148.08 374.365C148.297 374.365 148.483 423.06 148.483 483.149C148.483 543.239 148.313 591.933 148.08 591.933Z" fill="#455A64"/>
<path d="M159.46 223.482L184.233 224.706C184.496 221.826 184.713 210.678 184.713 210.678C184.713 210.678 195.024 209.47 195.551 199.205C196.077 188.94 195.164 165.328 195.164 165.328C189.433 162.586 183.072 161.427 176.743 161.972C170.413 162.516 164.344 164.744 159.165 168.425L157.617 169.539L159.46 223.482Z" fill="#E6BBAC"/>
<path d="M189.993 182.871C189.728 182.584 189.58 182.208 189.58 181.818C189.58 181.427 189.728 181.051 189.993 180.765C190.109 180.558 190.272 180.379 190.468 180.245C190.664 180.11 190.888 180.022 191.123 179.988C191.359 179.955 191.599 179.975 191.825 180.049C192.051 180.123 192.257 180.248 192.427 180.414C192.597 180.58 192.727 180.784 192.805 181.008C192.884 181.233 192.91 181.472 192.881 181.708C192.853 181.944 192.77 182.171 192.64 182.369C192.509 182.568 192.335 182.735 192.13 182.855C191.844 183.132 191.462 183.288 191.065 183.291C190.667 183.294 190.283 183.143 189.993 182.871Z" fill="#263238"/>
<path d="M194.731 180.625C194.561 180.796 193.585 179.991 192.176 179.929C190.767 179.867 189.715 180.563 189.56 180.362C189.405 180.161 189.653 179.975 190.117 179.65C190.737 179.233 191.477 179.032 192.223 179.077C192.966 179.102 193.68 179.375 194.251 179.851C194.669 180.223 194.809 180.548 194.731 180.625Z" fill="#263238"/>
<path d="M176.909 181.245C177.176 181.406 177.387 181.644 177.516 181.928C177.644 182.212 177.685 182.527 177.631 182.834C177.578 183.141 177.433 183.425 177.216 183.648C176.999 183.871 176.719 184.024 176.414 184.086C176.109 184.148 175.792 184.116 175.505 183.995C175.218 183.874 174.974 183.67 174.805 183.408C174.636 183.146 174.55 182.84 174.558 182.528C174.566 182.217 174.668 181.915 174.85 181.663C175.078 181.347 175.416 181.128 175.798 181.051C176.18 180.973 176.576 181.043 176.909 181.245Z" fill="#263238"/>
<path d="M179.34 181.292C179.17 181.462 178.195 180.657 176.786 180.595C175.377 180.533 174.308 181.23 174.169 181.044C174.03 180.858 174.262 180.641 174.726 180.316C175.345 179.907 176.078 179.706 176.819 179.742C177.559 179.778 178.269 180.05 178.845 180.517C179.278 180.827 179.418 181.23 179.34 181.292Z" fill="#263238"/>
<path d="M184.574 193.213C185.308 192.944 186.084 192.808 186.865 192.811C187.237 192.811 187.531 192.718 187.577 192.517C187.591 192.147 187.511 191.779 187.345 191.448C187.02 190.504 186.679 189.544 186.339 188.537C185.368 186.073 184.652 183.515 184.202 180.904C185.41 183.259 186.38 185.728 187.097 188.274C187.423 189.296 187.748 190.256 188.057 191.216C188.272 191.703 188.321 192.247 188.197 192.764C188.138 192.904 188.048 193.027 187.932 193.124C187.816 193.221 187.678 193.289 187.531 193.322C187.32 193.349 187.107 193.349 186.896 193.322C186.122 193.419 185.336 193.382 184.574 193.213Z" fill="#263238"/>
<path d="M179.913 194.56C178.473 193.631 183.892 196.867 186.772 196.836C186.266 197.556 185.532 198.083 184.689 198.334C183.846 198.584 182.943 198.542 182.127 198.214C179.077 196.976 179.913 194.56 179.913 194.56Z" fill="white"/>
<path d="M184.76 210.539C180.018 210.446 175.411 208.948 171.521 206.234C171.521 206.234 174.417 213.728 184.682 213.186L184.76 210.539Z" fill="#D88876"/>
<path d="M159.553 180.827C159.32 180.827 151.919 179.96 152.833 188.661C153.746 197.363 162.216 193.569 162.216 193.306C162.216 193.043 159.553 180.827 159.553 180.827Z" fill="#E6BBAC"/>
<path d="M159.228 190.596C159.228 190.596 159.089 190.72 158.841 190.875C158.495 191.063 158.091 191.113 157.711 191.014C157.113 190.713 156.605 190.26 156.238 189.7C155.871 189.14 155.658 188.493 155.62 187.825C155.527 187.081 155.595 186.326 155.822 185.611C155.878 185.331 155.999 185.068 156.177 184.845C156.355 184.621 156.583 184.443 156.844 184.326C157.012 184.261 157.198 184.258 157.368 184.317C157.538 184.377 157.682 184.495 157.773 184.651C157.927 184.883 157.881 185.069 157.927 185.069C157.974 185.069 158.098 184.914 157.927 184.558C157.861 184.348 157.724 184.168 157.54 184.047C157.278 183.896 156.97 183.847 156.673 183.908C156.32 184.02 156.002 184.222 155.75 184.493C155.498 184.764 155.32 185.096 155.233 185.456C154.942 186.247 154.846 187.097 154.955 187.933C154.995 188.712 155.263 189.461 155.725 190.089C156.187 190.717 156.824 191.195 157.556 191.463C157.796 191.508 158.044 191.498 158.279 191.433C158.515 191.369 158.734 191.252 158.918 191.092C159.228 190.813 159.259 190.612 159.228 190.596Z" fill="#D88876"/>
<path d="M193.739 165.963C194.985 165.563 196.063 164.761 196.803 163.682C197.543 162.603 197.903 161.308 197.827 160.002C197.703 158.699 197.226 157.455 196.449 156.402C195.672 155.349 194.623 154.528 193.414 154.026C192.2 153.538 190.897 153.312 189.59 153.362C188.282 153.413 187 153.739 185.828 154.32C185.416 152.418 184.342 150.725 182.796 149.543C181.25 148.361 179.334 147.769 177.391 147.871C175.448 147.974 173.604 148.765 172.191 150.102C170.778 151.44 169.888 153.237 169.679 155.171C169.385 153.205 167.109 152.075 165.127 152.075C164.131 151.999 163.132 152.15 162.204 152.518C161.276 152.885 160.443 153.459 159.77 154.196C159.127 154.956 158.788 155.928 158.82 156.923C158.851 157.918 159.25 158.866 159.94 159.584C157.7 159.343 155.45 159.939 153.623 161.256C152.727 161.927 152.013 162.81 151.545 163.827C151.077 164.844 150.871 165.961 150.944 167.078C151.059 168.185 151.518 169.229 152.257 170.062C152.996 170.895 153.977 171.476 155.063 171.723C155.806 171.862 156.719 171.878 157.137 172.512C157.331 172.895 157.411 173.324 157.37 173.751V181.121C158.055 180.867 158.811 180.886 159.483 181.175C160.154 181.463 160.689 181.998 160.977 182.669C161.527 184.022 161.703 185.498 161.488 186.943C162.139 187.887 163.733 187.562 164.399 186.633C164.962 185.637 165.195 184.487 165.065 183.351L164.925 171.49C165.516 171.802 166.176 171.957 166.843 171.942C167.51 171.927 168.163 171.741 168.738 171.403C169.313 171.065 169.793 170.586 170.131 170.01C170.469 169.435 170.654 168.782 170.67 168.115C171.528 168.9 172.549 169.484 173.661 169.825C174.772 170.165 175.946 170.255 177.096 170.086C178.247 169.917 179.345 169.494 180.311 168.848C181.278 168.202 182.089 167.348 182.685 166.35C183.896 167.336 185.222 168.173 186.633 168.843C188.069 169.496 189.695 169.595 191.2 169.122C191.941 168.864 192.585 168.386 193.047 167.753C193.509 167.119 193.767 166.36 193.786 165.576L193.259 165.142" fill="#263238"/>
<path d="M275.676 252.838C274.001 252.838 272.364 253.335 270.971 254.266C269.578 255.196 268.493 256.519 267.852 258.067C267.211 259.614 267.043 261.317 267.37 262.96C267.697 264.603 268.503 266.112 269.688 267.296C270.872 268.481 272.381 269.287 274.024 269.614C275.667 269.941 277.37 269.773 278.917 269.132C280.465 268.491 281.788 267.406 282.718 266.013C283.649 264.62 284.145 262.983 284.145 261.308C284.148 260.195 283.93 259.093 283.505 258.064C283.08 257.036 282.456 256.101 281.669 255.314C280.883 254.528 279.948 253.904 278.92 253.479C277.891 253.054 276.789 252.836 275.676 252.838ZM275.676 259.775C275.196 259.775 274.726 259.632 274.326 259.365C273.926 259.098 273.614 258.718 273.43 258.274C273.246 257.83 273.198 257.341 273.292 256.87C273.386 256.398 273.617 255.965 273.957 255.625C274.297 255.285 274.73 255.054 275.202 254.96C275.674 254.866 276.162 254.914 276.607 255.098C277.051 255.282 277.43 255.594 277.697 255.993C277.965 256.393 278.107 256.863 278.107 257.344C278.111 257.665 278.051 257.984 277.931 258.281C277.81 258.579 277.632 258.85 277.405 259.077C277.179 259.305 276.909 259.486 276.613 259.608C276.316 259.73 275.997 259.792 275.676 259.79V259.775Z" fill="#696871"/>
<path d="M272.874 269.158V284.377C272.874 284.377 276.249 285.926 276.064 286.127C275.878 286.328 278.494 284.377 278.494 284.377V282.55L276.946 281.002L278.494 279.593L276.946 277.658L278.494 275.939L276.76 273.988L278.494 272.239V269.142L272.874 269.158Z" fill="#696871"/>
<path d="M285.105 239.291L275.428 230.636L265.674 239.415L268.554 239.864L268.801 248.735L281.977 248.968L281.59 239.678L285.105 239.291ZM275.351 247.311C275.051 247.287 274.765 247.176 274.527 246.992C274.289 246.808 274.11 246.559 274.012 246.274C273.913 245.99 273.9 245.684 273.973 245.392C274.046 245.1 274.202 244.836 274.423 244.632C274.643 244.427 274.919 244.292 275.215 244.241C275.512 244.191 275.816 244.228 276.092 244.348C276.368 244.468 276.603 244.666 276.768 244.917C276.933 245.168 277.022 245.462 277.023 245.763C277.024 245.977 276.98 246.189 276.894 246.385C276.809 246.582 276.684 246.758 276.527 246.904C276.369 247.049 276.184 247.161 275.981 247.231C275.779 247.301 275.564 247.328 275.351 247.311Z" fill="#263238"/>
<path d="M276.651 246.738C276.651 246.738 276.357 246.815 275.893 246.815C275.244 246.765 274.592 246.866 273.988 247.11C273.107 247.439 272.342 248.02 271.79 248.782C271.117 249.713 270.814 250.86 270.938 252.002C271.074 253.14 271.625 254.188 272.486 254.944C273.191 255.57 274.062 255.979 274.995 256.121C275.893 256.176 276.795 256.103 277.673 255.904C277.303 256.219 276.87 256.452 276.403 256.588C275.936 256.724 275.446 256.76 274.964 256.694C273.883 256.624 272.853 256.212 272.022 255.517C270.983 254.655 270.322 253.422 270.179 252.08C270.04 250.74 270.423 249.398 271.248 248.333C271.904 247.475 272.823 246.855 273.864 246.568C274.546 246.352 275.274 246.326 275.97 246.49C276.404 246.599 276.667 246.692 276.651 246.738Z" fill="#455A64"/>
<path d="M279.733 253.876C279.532 253.767 280.012 252.668 279.934 251.306C279.857 249.943 279.346 248.906 279.501 248.766C279.656 248.627 280.693 249.618 280.739 251.259C280.786 252.9 279.903 254.015 279.733 253.876Z" fill="#455A64"/>
<path d="M251.213 241.505C252.172 238.659 253.401 235.911 254.882 233.299C256.224 231.225 258.161 229.605 260.441 228.654C263.414 227.524 266.727 227.973 269.885 228.437L277.503 229.567C278.541 229.722 279.857 230.202 279.826 231.24C279.775 231.541 279.637 231.822 279.427 232.045C279.218 232.268 278.947 232.424 278.649 232.494C278.04 232.61 277.415 232.61 276.806 232.494C275.122 232.28 273.422 232.228 271.728 232.339C270.52 232.416 269.018 232.85 268.817 234.042C268.616 235.234 269.777 236.024 270.845 236.055C271.931 235.98 272.972 235.599 273.849 234.955L276.837 233.19C277.363 232.776 278.029 232.582 278.695 232.648C279.795 232.896 280.058 234.475 279.469 235.435C278.771 236.329 277.889 237.063 276.884 237.588C273.044 240.189 271.263 244.4 269.498 249.974" fill="#E6BBAC"/>
<path d="M251.29 240.328L234.259 284.238L216.546 243.255C211.003 223.421 186.509 222.12 186.509 222.12L162.278 219.024C153.561 215.478 139.441 218.435 133.913 221.485C126.868 225.356 120.613 237.263 119.22 246.042C119.22 246.042 94.8183 309.135 98.9833 315.715C103.148 322.296 129.206 348.044 129.206 348.044L125.568 361.329L167.031 363.945L171.227 347.58L171.723 365.091L210.709 367.831C209.006 352.426 206.25 336.943 205.507 332.53L202.41 287.335L202.813 278.045L203.184 277.085C206.838 283.201 211.437 291.02 217.119 301.053C228.515 321.181 240.019 316.041 246.769 307.958C249.647 304.26 251.816 300.06 253.164 295.572L269.932 248.441L251.29 240.328ZM132.52 315.669C132.52 315.917 128.339 308.222 128.339 308.222L134.439 288.094C134.439 288.094 132.52 315.437 132.52 315.669Z" fill="#696871"/>
<path d="M159.104 219.534L172.188 269.777L185.751 222.6L184.249 222.476L184.605 216.267L159.104 213.217V219.534Z" fill="white"/>
<path d="M158.408 220.014C158.442 220.24 158.442 220.47 158.408 220.695C158.315 221.206 158.206 221.857 158.067 222.631C157.742 224.411 157.277 226.842 156.704 229.83C156.132 232.819 155.373 236.612 154.552 240.761C154.165 242.79 153.577 245.128 154.723 247.048C155.868 248.968 158.253 249.896 160.606 250.686L161.055 250.841L160.807 251.244C158.934 254.51 159.089 258.985 160.467 262.84C161.372 265.292 162.438 267.681 163.656 269.994C164.802 272.306 165.912 274.54 166.985 276.698C169.091 281.002 171.057 284.981 172.807 288.511L172.188 288.666C172.188 282.984 172.188 278.292 172.188 274.902C172.188 273.353 172.188 272.068 172.188 271.108C172.151 270.665 172.151 270.22 172.188 269.777C172.281 270.214 172.322 270.661 172.311 271.108C172.311 272.068 172.389 273.322 172.451 274.902C172.528 278.277 172.652 282.968 172.791 288.651V290.075L172.141 288.805C170.376 285.275 168.379 281.312 166.211 277.038C165.143 274.886 164.028 272.641 162.867 270.35C161.628 268.004 160.547 265.578 159.631 263.088C158.206 259.032 158.082 254.402 160.064 250.856L160.281 251.429C159.068 251.045 157.892 250.553 156.766 249.958C155.634 249.378 154.682 248.5 154.01 247.419C153.413 246.35 153.158 245.123 153.283 243.905C153.385 242.799 153.566 241.702 153.825 240.622C154.707 236.488 155.481 232.881 156.147 229.784C156.813 226.687 157.339 224.396 157.695 222.631C157.866 221.857 158.021 221.222 158.144 220.711C158.203 220.469 158.291 220.235 158.408 220.014Z" fill="#263238"/>
<path d="M188.12 222.91C188.355 223.674 188.531 224.456 188.646 225.248C188.925 226.796 189.312 228.979 189.73 231.766C190.148 234.553 190.643 237.851 190.938 241.629C190.938 242.573 191.062 243.533 191.031 244.555C191.039 245.662 190.704 246.744 190.071 247.652C188.719 249.416 186.953 250.819 184.93 251.739V251.058C185.637 251.644 186.239 252.345 186.711 253.133C186.835 253.318 186.943 253.52 187.051 253.721C187.118 253.894 187.15 254.078 187.144 254.263V254.634C187.051 255.114 186.928 255.548 186.804 255.997C185.255 260.843 183.335 265.287 181.648 269.297C179.96 273.307 178.35 276.93 177.003 279.934C175.656 282.938 174.526 285.384 173.736 287.056L172.792 288.976C172.575 289.409 172.451 289.626 172.42 289.611C172.457 289.362 172.535 289.121 172.652 288.899C172.869 288.372 173.132 287.722 173.442 286.932L176.538 279.717C177.839 276.62 179.356 273.013 181.029 269.003C182.701 264.993 184.559 260.518 186.091 255.765C186.222 255.354 186.325 254.935 186.401 254.511V254.232C186.392 254.191 186.392 254.149 186.401 254.108L186.076 253.551C185.661 252.859 185.138 252.237 184.528 251.708L184.032 251.29L184.59 251.011C186.489 250.166 188.152 248.869 189.436 247.234C190.643 245.685 190.256 243.58 190.225 241.737C189.993 238.006 189.544 234.677 189.204 231.89C188.863 229.103 188.569 227.013 188.352 225.356C188.197 224.55 188.119 223.731 188.12 222.91Z" fill="#263238"/>
<path d="M171.228 349.5C170.995 349.5 171.228 335.286 171.708 317.79C172.187 300.294 172.776 286.112 173.055 286.112C173.333 286.112 173.055 300.31 172.575 317.821C172.095 335.333 171.506 349.5 171.228 349.5Z" fill="#263238"/>
<path d="M177.591 298.792C177.498 298.792 178.009 298.219 178.845 298.606C179.13 298.726 179.368 298.933 179.526 299.199C179.683 299.464 179.752 299.773 179.72 300.08C179.689 300.387 179.56 300.676 179.352 300.904C179.145 301.132 178.869 301.287 178.566 301.347C178.272 301.455 177.95 301.464 177.65 301.373C177.35 301.281 177.088 301.094 176.904 300.84C176.72 300.586 176.624 300.278 176.63 299.965C176.637 299.651 176.746 299.348 176.941 299.102C177.467 298.359 178.164 298.529 178.117 298.622C178.071 298.715 177.668 298.823 177.436 299.381C177.371 299.521 177.337 299.675 177.337 299.83C177.337 299.985 177.371 300.138 177.436 300.279C177.533 300.419 177.674 300.523 177.837 300.574C178 300.624 178.175 300.619 178.334 300.557C178.502 300.531 178.657 300.45 178.775 300.327C178.892 300.204 178.966 300.045 178.984 299.876C178.978 299.722 178.936 299.571 178.861 299.437C178.785 299.302 178.679 299.187 178.551 299.102C178.086 298.73 177.653 298.885 177.591 298.792Z" fill="#263238"/>
<path d="M177.761 314.879C177.652 314.879 178.163 314.322 179.015 314.693C179.258 314.808 179.467 314.983 179.622 315.203C179.777 315.423 179.872 315.68 179.897 315.947C179.908 316.301 179.796 316.648 179.582 316.929C179.368 317.211 179.064 317.411 178.721 317.496C178.389 317.59 178.035 317.572 177.716 317.443C177.396 317.314 177.128 317.082 176.956 316.783C176.84 316.536 176.792 316.262 176.817 315.99C176.841 315.719 176.937 315.458 177.095 315.235C177.637 314.476 178.318 314.647 178.272 314.755C178.225 314.863 177.823 314.956 177.59 315.514C177.525 315.654 177.491 315.808 177.491 315.963C177.491 316.118 177.525 316.271 177.59 316.412C177.698 316.542 177.841 316.638 178.002 316.688C178.163 316.739 178.335 316.743 178.498 316.699C178.661 316.655 178.808 316.565 178.922 316.44C179.035 316.315 179.111 316.16 179.139 315.994C179.13 315.84 179.087 315.691 179.012 315.556C178.937 315.422 178.832 315.307 178.705 315.22C178.241 314.817 177.807 314.987 177.761 314.879Z" fill="#263238"/>
<path d="M177.064 333.087C176.971 333.087 177.467 332.53 178.318 332.902C178.563 333.013 178.774 333.185 178.931 333.402C179.089 333.619 179.187 333.874 179.216 334.14C179.226 334.496 179.113 334.844 178.895 335.126C178.678 335.408 178.371 335.607 178.024 335.689C177.693 335.783 177.339 335.765 177.019 335.636C176.7 335.507 176.432 335.275 176.259 334.976C176.144 334.729 176.096 334.455 176.12 334.183C176.145 333.912 176.241 333.651 176.399 333.428C176.94 332.669 177.637 332.84 177.575 332.948C177.513 333.056 177.126 333.134 176.894 333.707C176.829 333.847 176.795 334.001 176.795 334.156C176.795 334.311 176.829 334.464 176.894 334.605C177 334.739 177.144 334.838 177.307 334.887C177.47 334.937 177.645 334.936 177.808 334.883C177.976 334.852 178.13 334.767 178.247 334.642C178.364 334.516 178.438 334.357 178.458 334.187C178.443 334.033 178.396 333.884 178.318 333.75C178.241 333.617 178.135 333.501 178.009 333.413C177.544 333.026 177.111 333.196 177.064 333.087Z" fill="#263238"/>
<path d="M185.75 271.557H197.146V269.777H185.146L185.75 271.557Z" fill="#263238"/>
<path d="M266.665 257.143C263.508 256.084 260.442 254.768 257.499 253.21C254.439 251.899 251.487 250.346 248.674 248.565C251.83 249.633 254.896 250.953 257.84 252.514C260.902 253.816 263.853 255.364 266.665 257.143Z" fill="#455A64"/>
<path d="M251.213 245.144C251.213 245.144 251.306 244.633 251.987 244.385C252.394 244.218 252.85 244.218 253.257 244.385C253.52 244.513 253.737 244.717 253.881 244.972C254.025 245.226 254.088 245.518 254.062 245.809C254.064 246.115 253.961 246.411 253.769 246.649C253.577 246.886 253.308 247.049 253.009 247.11C252.765 247.139 252.519 247.09 252.305 246.971C252.09 246.851 251.92 246.667 251.817 246.444C251.741 246.31 251.701 246.158 251.701 246.003C251.701 245.848 251.741 245.696 251.817 245.562C251.941 245.376 252.064 245.36 252.095 245.391C252.126 245.422 252.003 245.778 252.328 246.135C252.653 246.491 253.241 246.491 253.288 245.763C253.334 245.035 252.668 244.803 252.157 244.88C251.646 244.958 251.306 245.221 251.213 245.144Z" fill="#455A64"/>
<path d="M233.376 293.451C233.165 291.785 233.228 290.095 233.562 288.45C233.631 286.77 233.971 285.113 234.569 283.542C234.7 286.887 234.298 290.232 233.376 293.451Z" fill="#263238"/>
<path d="M237.325 292.971C236.466 291.626 235.828 290.152 235.436 288.604C234.806 287.13 234.429 285.559 234.321 283.959C235.832 286.763 236.848 289.806 237.325 292.955V292.971Z" fill="#263238"/>
<path d="M175.346 218.42C174.784 220.602 173.8 222.654 172.45 224.458L174.726 230.651H176.662L178.303 224.706C178.303 224.706 177.157 223.792 176.321 218.234L175.346 218.42Z" fill="#455A64"/>
<path d="M184.171 222.337C184.171 222.337 183.985 222.755 183.49 223.405C182.804 224.411 181.783 225.141 180.61 225.464C180.172 225.57 179.716 225.575 179.276 225.478C178.836 225.381 178.424 225.186 178.071 224.907C177.389 224.167 176.933 223.249 176.755 222.259C176.154 220.125 175.811 217.926 175.733 215.71L176.507 215.803C176.135 217.073 175.81 218.42 175.346 219.767C174.906 221.117 174.331 222.419 173.627 223.653C173.252 224.293 172.719 224.827 172.079 225.201C171.465 225.556 170.758 225.718 170.05 225.666C168.846 225.536 167.673 225.201 166.582 224.675C165.637 224.227 164.726 223.709 163.857 223.127C162.613 222.315 161.414 221.436 160.265 220.494C159.811 220.189 159.4 219.824 159.042 219.411C159.135 219.287 160.993 220.696 164.151 222.631C165.015 223.15 165.916 223.605 166.845 223.994C167.87 224.457 168.963 224.75 170.081 224.861C170.664 224.881 171.241 224.736 171.745 224.443C172.249 224.15 172.66 223.72 172.93 223.204C173.562 222.017 174.081 220.773 174.479 219.488C174.912 218.172 175.253 216.84 175.64 215.555C175.652 215.505 175.675 215.458 175.706 215.417C175.737 215.375 175.776 215.341 175.821 215.315C175.866 215.289 175.915 215.272 175.967 215.265C176.018 215.259 176.07 215.263 176.12 215.277C176.201 215.301 176.272 215.35 176.325 215.417C176.377 215.483 176.408 215.564 176.414 215.648C176.471 217.812 176.772 219.962 177.312 222.058C177.447 222.93 177.817 223.749 178.38 224.427C178.66 224.655 178.988 224.818 179.339 224.904C179.689 224.989 180.055 224.996 180.409 224.923C181.497 224.661 182.47 224.053 183.18 223.188C183.474 222.864 183.806 222.578 184.171 222.337Z" fill="#E0E0E0"/>
<path d="M174.726 230.636C174.401 231.441 168.316 254.913 168.316 254.913L172.172 269.777L179.309 245.004C179.309 245.004 176.894 229.846 176.786 230.249C176.677 230.651 174.726 230.636 174.726 230.636Z" fill="#455A64"/>
<path d="M152.431 340.566C149.284 341.183 146.058 341.288 142.878 340.875C139.692 340.716 136.554 340.036 133.588 338.862C133.588 338.63 137.799 339.606 143.002 340.07C148.204 340.535 152.415 340.302 152.431 340.566Z" fill="#263238"/>
<path d="M206.204 343.771C204.013 344.038 201.799 344.038 199.608 343.771C197.406 343.787 195.211 343.527 193.074 342.997C195.26 342.735 197.469 342.735 199.655 342.997C201.861 342.994 204.059 343.254 206.204 343.771Z" fill="#263238"/>
<path d="M134.687 265.984C134.73 266.266 134.73 266.553 134.687 266.835C134.687 267.486 134.718 268.306 134.78 269.297C134.78 271.434 134.888 274.515 134.904 278.339C134.904 285.973 134.702 296.517 134.083 308.144C133.464 319.772 132.535 330.285 131.668 337.872C131.25 341.665 130.863 344.731 130.568 346.852C130.429 347.827 130.305 348.632 130.212 349.283C130.179 349.566 130.122 349.845 130.042 350.119C129.998 349.837 129.998 349.549 130.042 349.267C130.042 348.617 130.166 347.796 130.243 346.806C130.445 344.576 130.739 341.526 131.079 337.825C131.776 330.223 132.628 319.726 133.263 308.098C133.897 296.47 134.176 285.957 134.315 278.324C134.315 274.592 134.424 271.542 134.455 269.297C134.455 268.306 134.455 267.486 134.455 266.835C134.487 266.541 134.566 266.254 134.687 265.984Z" fill="#263238"/>
<path d="M128.323 308.98C129.151 304.636 130.236 300.344 131.575 296.129C132.661 291.834 134.011 287.609 135.616 283.479C134.798 287.83 133.717 292.126 132.38 296.346C131.286 300.636 129.931 304.855 128.323 308.98Z" fill="#263238"/>
<path d="M133.124 317.155C131.183 314.479 129.459 311.652 127.968 308.702C126.239 305.878 124.747 302.916 123.509 299.845C125.456 302.517 127.18 305.345 128.665 308.299C130.394 311.122 131.885 314.085 133.124 317.155Z" fill="#263238"/>
</svg>
