<svg width="51" height="50" viewBox="0 0 51 50" fill="none" xmlns="http://www.w3.org/2000/svg">
<g clip-path="url(#clip0)">
<path d="M42.4095 7.10507C32.6009 -2.36836 17.0505 -2.36836 7.24185 7.10507C-2.46947 17.16 -2.19095 33.1835 7.86394 42.8948C17.6725 52.3683 33.223 52.3683 43.0316 42.8948C52.7429 32.84 52.4644 16.8164 42.4095 7.10507ZM41.842 41.7052L41.8336 41.6968C32.6038 50.9182 17.6461 50.9114 8.42474 41.6816C-0.796671 32.4518 -0.789848 17.4942 8.43997 8.27284C17.6698 -0.948569 32.6274 -0.941747 41.8488 8.28797C46.2781 12.7213 48.7644 18.733 48.7604 25C48.7608 31.2655 46.2722 37.2746 41.842 41.7052Z" fill="white"/>
<path d="M39.3535 32.2052L34.612 27.4804C33.5358 26.4017 31.789 26.3996 30.7103 27.4758C30.7087 27.4773 30.7072 27.4788 30.7057 27.4804L27.989 30.1971C27.7834 30.4031 27.4595 30.4316 27.2212 30.2646C25.7343 29.2255 24.3424 28.0565 23.0618 26.7717C21.9149 25.6274 20.8599 24.3946 19.9064 23.0847C19.7335 22.8494 19.7587 22.5231 19.9654 22.317L22.7496 19.5327C23.8245 18.4557 23.8245 16.7119 22.7496 15.6349L18.008 10.8933C16.9154 9.84872 15.1944 9.84872 14.1017 10.8933L12.6 12.395C10.332 14.6375 9.52233 17.9673 10.5076 21.0008C11.2428 23.2201 12.282 25.3269 13.5955 27.261C14.778 29.0342 16.1346 30.6847 17.6453 32.1882C19.2876 33.8424 21.1069 35.3107 23.0702 36.567C25.2286 37.9755 27.5984 39.0293 30.0898 39.6887C30.7303 39.8466 31.3876 39.9259 32.0471 39.9249C34.3084 39.9111 36.4718 39.0009 38.0628 37.3938L39.3536 36.1029C40.4284 35.026 40.4284 33.2822 39.3535 32.2052ZM38.1588 34.9523C38.1577 34.9534 38.1566 34.9546 38.1554 34.9557L38.1638 34.9303L36.8729 36.2212C35.2144 37.9007 32.7989 38.5917 30.503 38.0436C28.1899 37.4245 25.991 36.4389 23.9896 35.1244C22.1303 33.9361 20.4071 32.5469 18.8515 30.9818C17.4202 29.5609 16.1342 28.0008 15.0126 26.3246C13.7859 24.521 12.8148 22.5562 12.1272 20.4862C11.3389 18.0543 11.9921 15.3859 13.8146 13.5932L15.3164 12.0914C15.7339 11.672 16.4124 11.6705 16.8317 12.0881C16.8328 12.0891 16.8339 12.0902 16.835 12.0914L21.5766 16.833C21.996 17.2505 21.9975 17.929 21.58 18.3483C21.5789 18.3494 21.5778 18.3504 21.5766 18.3516L18.7924 21.1358C17.9935 21.926 17.8931 23.1817 18.5562 24.0888C19.5632 25.4708 20.6776 26.7713 21.8888 27.9783C23.2393 29.3346 24.7074 30.5684 26.276 31.6653C27.1824 32.2975 28.4112 32.1909 29.1952 31.4122L31.8866 28.6786C32.3041 28.2592 32.9826 28.2577 33.4019 28.6753C33.403 28.6763 33.4041 28.6774 33.4052 28.6786L38.1553 33.4371C38.5748 33.8545 38.5763 34.5329 38.1588 34.9523Z" fill="white"/>
</g>
<defs>
<clipPath id="clip0">
<rect width="50" height="50" fill="white" transform="translate(0.137695)"/>
</clipPath>
</defs>
</svg>
