<svg width="51" height="51" viewBox="0 0 51 51" fill="none" xmlns="http://www.w3.org/2000/svg">
<g clip-path="url(#clip0)">
<path d="M42.4095 7.44589C32.6009 -2.02754 17.0505 -2.02754 7.24185 7.44589C-2.46947 17.5008 -2.19095 33.5243 7.86394 43.2356C17.6725 52.7091 33.223 52.7091 43.0316 43.2356C52.7429 33.1809 52.4644 17.1572 42.4095 7.44589ZM41.842 42.046L41.8336 42.0376C32.6038 51.259 17.6461 51.2522 8.42474 42.0224C-0.796671 32.7926 -0.789848 17.8351 8.43997 8.61366C17.6698 -0.607749 32.6274 -0.600927 41.8488 8.62879C46.2781 13.0622 48.7644 19.0738 48.7604 25.3408C48.7608 31.6063 46.2722 37.6154 41.842 42.046Z" fill="#CCD408"/>
<path d="M39.3535 32.546L34.612 27.8213C33.5358 26.7426 31.789 26.7405 30.7103 27.8166C30.7087 27.8182 30.7072 27.8197 30.7057 27.8213L27.989 30.538C27.7834 30.744 27.4595 30.7725 27.2212 30.6055C25.7343 29.5664 24.3424 28.3974 23.0618 27.1126C21.9149 25.9682 20.8599 24.7355 19.9064 23.4256C19.7335 23.1903 19.7587 22.864 19.9654 22.6578L22.7496 19.8736C23.8245 18.7966 23.8245 17.0527 22.7496 15.9757L18.008 11.2342C16.9154 10.1896 15.1944 10.1896 14.1017 11.2342L12.6 12.7359C10.332 14.9784 9.52233 18.3082 10.5076 21.3417C11.2428 23.561 12.282 25.6678 13.5955 27.6019C14.778 29.375 16.1346 31.0256 17.6453 32.5291C19.2876 34.1832 21.1069 35.6516 23.0702 36.9079C25.2286 38.3163 27.5984 39.3702 30.0898 40.0296C30.7303 40.1875 31.3876 40.2668 32.0471 40.2658C34.3084 40.2519 36.4718 39.3417 38.0628 37.7347L39.3536 36.4438C40.4284 35.3669 40.4284 33.623 39.3535 32.546ZM38.1588 35.2932C38.1577 35.2943 38.1566 35.2954 38.1554 35.2965L38.1638 35.2712L36.8729 36.5621C35.2144 38.2416 32.7989 38.9326 30.503 38.3845C28.1899 37.7653 25.991 36.7798 23.9896 35.4653C22.1303 34.277 20.4071 32.8878 18.8515 31.3227C17.4202 29.9018 16.1342 28.3416 15.0126 26.6655C13.7859 24.8619 12.8148 22.8971 12.1272 20.827C11.3389 18.3952 11.9921 15.7268 13.8146 13.934L15.3164 12.4323C15.7339 12.0129 16.4124 12.0114 16.8317 12.4289C16.8328 12.43 16.8339 12.4311 16.835 12.4323L21.5766 17.1739C21.996 17.5914 21.9975 18.2698 21.58 18.6892C21.5789 18.6902 21.5778 18.6913 21.5766 18.6925L18.7924 21.4767C17.9935 22.2669 17.8931 23.5226 18.5562 24.4297C19.5632 25.8117 20.6776 27.1122 21.8888 28.3192C23.2393 29.6755 24.7074 30.9093 26.276 32.0062C27.1824 32.6384 28.4112 32.5318 29.1952 31.7531L31.8866 29.0195C32.3041 28.6001 32.9826 28.5986 33.4019 29.0161C33.403 29.0172 33.4041 29.0183 33.4052 29.0195L38.1553 33.778C38.5748 34.1954 38.5763 34.8738 38.1588 35.2932Z" fill="#CCD408"/>
</g>
<defs>
<clipPath id="clip0">
<rect width="50" height="50" fill="white" transform="translate(0.137695 0.34082)"/>
</clipPath>
</defs>
</svg>
