<svg width="941" height="1422" viewBox="0 0 941 1422" fill="none" xmlns="http://www.w3.org/2000/svg">
<g filter="url(#filter0_d)">
<path fill-rule="evenodd" clip-rule="evenodd" d="M449.041 192.849C547.367 236.016 527.552 386.182 589.083 474.189C649.08 560.002 785.098 592.282 800.698 695.821C816.384 799.926 735.498 894.633 664.087 971.993C598.644 1042.89 504.362 1067.44 417.982 1110.42C311.673 1163.32 218.435 1268.14 100.753 1252.3C-20.8837 1235.93 -108.276 1128.5 -181.206 1029.78C-254.846 930.105 -310.454 815.87 -313.218 691.972C-316.028 565.999 -291.121 425.415 -196.545 342.153C-105.827 262.287 34.3241 309.57 152.08 282.336C255.332 258.458 352.004 150.248 449.041 192.849Z" fill="white"/>
</g>
<defs>
<filter id="filter0_d" x="-479.592" y="0.614258" width="1420.16" height="1421.1" filterUnits="userSpaceOnUse" color-interpolation-filters="sRGB">
<feFlood flood-opacity="0" result="BackgroundImageFix"/>
<feColorMatrix in="SourceAlpha" type="matrix" values="0 0 0 0 0 0 0 0 0 0 0 0 0 0 0 0 0 0 127 0"/>
<feOffset dx="2" dy="2"/>
<feGaussianBlur stdDeviation="2"/>
<feColorMatrix type="matrix" values="0 0 0 0 0 0 0 0 0 0 0 0 0 0 0 0 0 0 0.15 0"/>
<feBlend mode="normal" in2="BackgroundImageFix" result="effect1_dropShadow"/>
<feBlend mode="normal" in="SourceGraphic" in2="effect1_dropShadow" result="shape"/>
</filter>
</defs>
</svg>
